<svg width="100" height="100" viewBox="0 0 100 100" fill="none" xmlns="http://www.w3.org/2000/svg">
<path d="M52.5015 13.5328L20.8199 39.2797V72.7844C20.8199 74.9418 22.5687 76.6907 24.7261 76.6907H80.2773C82.4347 76.6907 84.1836 74.9418 84.1836 72.7844V39.2801L52.5015 13.5328Z" fill="#F1F2F2"/>
<path d="M52.5038 13.5348V76.6907H80.2769C82.4343 76.6907 84.1831 74.9418 84.1831 72.7844V39.2801L52.5038 13.5348Z" fill="#F1F2F2"/>
<path d="M68.3438 76.6906H80.277C82.4344 76.6906 84.1832 74.9417 84.1832 72.7843V39.28L68.3438 26.4073V76.6906Z" fill="#E6E7E8"/>
<path d="M36.6597 76.6906H24.7261C22.5687 76.6906 20.8199 74.9417 20.8199 72.7843V39.28L36.6597 26.4073V76.6906Z" fill="#F1F2F2"/>
<path d="M91.7136 31.7211L55.8515 2.57693C53.9015 0.991772 51.1074 0.991772 49.1581 2.57693L13.1496 31.8402C10.8749 33.6883 10.5296 37.0304 12.3781 39.3047C14.2257 41.5797 17.5691 41.925 19.8425 40.0761L52.5046 13.5328L85.1664 40.0761C87.9781 42.1308 91.3406 41.2652 92.9894 38.8109C94.512 36.5437 93.8331 33.4433 91.7136 31.7211Z" fill="#E03152"/>
<path d="M64.9999 76.6201H38.9999V34.1803C38.9999 33.3187 39.6796 32.6201 40.518 32.6201H63.4819C64.3202 32.6201 64.9999 33.3187 64.9999 34.1803V76.6201Z" fill="#BF6015"/>
<path d="M64.3198 32.6238H62.3667C63.2296 32.6238 63.9292 33.3234 63.9292 34.1863V76.6902H65.8823V34.1863C65.8823 33.3234 65.1827 32.6238 64.3198 32.6238Z" fill="#995222"/>
<path d="M60.7847 49.4253H44.2187C43.787 49.4253 43.4374 49.0757 43.4374 48.6441V38.0812C43.4374 37.6495 43.787 37.2999 44.2187 37.2999H60.7847C61.2163 37.2999 61.566 37.6495 61.566 38.0812V48.6441C61.566 49.0757 61.2163 49.4253 60.7847 49.4253Z" fill="#5E9CF7"/>
<path d="M60.7847 37.2999H58.8315C59.2632 37.2999 59.6128 37.6495 59.6128 38.0812V48.6441C59.6128 49.0757 59.2632 49.4253 58.8315 49.4253H60.7847C61.2163 49.4253 61.5659 49.0757 61.5659 48.6441V38.0812C61.5659 37.6499 61.2163 37.2999 60.7847 37.2999Z" fill="#478CF7"/>
<path d="M45.0925 57.2917C46.0066 57.2917 46.7476 56.5507 46.7476 55.6366C46.7476 54.7226 46.0066 53.9816 45.0925 53.9816C44.1784 53.9816 43.4374 54.7226 43.4374 55.6366C43.4374 56.5507 44.1784 57.2917 45.0925 57.2917Z" fill="#FFC91D"/>
<path d="M81.8918 58.5487L80.7339 52.2026C80.6597 51.796 80.3851 51.4546 80.0039 51.2948L72.3535 48.0897C71.9722 47.93 71.5363 47.9737 71.1945 48.2061L65.8589 51.8319C65.4671 52.0979 65.1613 52.4722 64.9785 52.9093L54.8105 77.1796C54.5496 77.8022 54.8429 78.5183 55.4656 78.7792L69.9742 84.8577C70.5968 85.1186 71.3128 84.8253 71.5738 84.2026L81.7418 59.9323C81.9246 59.4952 81.9769 59.0147 81.8918 58.5487ZM76.5031 54.0737C76.0875 55.0659 74.9461 55.5335 73.9539 55.1175C72.9617 54.7018 72.4941 53.5604 72.9101 52.5682C73.3257 51.5761 74.4671 51.1085 75.4593 51.5245C76.4515 51.9401 76.9191 53.0815 76.5031 54.0737Z" fill="#76A34F"/>
<path d="M70.6182 83.4307L55.9909 77.3026C55.519 77.1049 55.235 76.6479 55.235 76.1663L54.8108 77.1792C54.5499 77.8018 54.8432 78.5178 55.4659 78.7788L69.9745 84.8573C70.5971 85.1182 71.3132 84.8249 71.5741 84.2022L72.0514 83.0624C71.7155 83.4799 71.137 83.6479 70.6182 83.4307Z" fill="#628F3B"/>
<path d="M68.3366 80.8585L59.464 77.1413C58.8413 76.8803 58.5483 76.1643 58.8089 75.5417L66.1878 57.9292C66.4487 57.3065 67.1647 57.0135 67.7874 57.2741L76.66 60.9913C77.2827 61.2522 77.5757 61.9682 77.3151 62.5909L69.9362 80.2034C69.6753 80.826 68.9593 81.1194 68.3366 80.8585Z" fill="#91B56B"/>
<path d="M85.6304 49.8913C80.0183 50.0526 75.4015 54.5991 75.1597 60.2085C74.9534 64.9905 77.8601 69.119 82.0202 70.7452V91.9143L85.9487 95.3921L89.6644 92.1026C89.7995 91.9831 89.8769 91.8108 89.8769 91.6303V90.3514C89.8769 90.203 89.8245 90.0596 89.7292 89.946L87.6823 87.5061L89.5366 85.296C89.7335 85.0616 89.7335 84.7198 89.5366 84.485L87.6823 82.2745L89.5366 80.0639C89.7335 79.8296 89.7335 79.4878 89.5366 79.253L87.6823 77.0428L89.7292 74.603C89.8245 74.4893 89.8769 74.346 89.8769 74.1975V70.7452C93.898 69.1733 96.7476 65.2639 96.7476 60.6862C96.748 54.6163 91.7401 49.7159 85.6304 49.8913ZM86.4397 59.021C84.4562 59.3464 82.7655 57.6557 83.0909 55.6725C83.2878 54.4714 84.2565 53.5026 85.4577 53.3057C87.4413 52.9803 89.1315 54.671 88.8062 56.6542C88.6097 57.855 87.6409 58.8237 86.4397 59.021Z" fill="#FFCA45"/>
<path d="M85.9488 49.887C85.6831 49.887 85.421 49.8999 85.1601 49.9186C90.7558 50.3229 95.171 54.9874 95.171 60.6862C95.171 65.1151 92.5038 68.9182 88.689 70.5842C88.4554 70.6862 88.2999 70.9112 88.2999 71.1659V74.4268L86.4456 76.637C86.2488 76.8713 86.2488 77.2135 86.4456 77.4479L87.9601 79.2526C88.157 79.487 88.157 79.8288 87.9601 80.0635L86.4456 81.8686C86.2488 82.103 86.2488 82.4452 86.4456 82.6795L87.9601 84.4846C88.157 84.719 88.157 85.0608 87.9601 85.2956L86.4456 87.1002C86.2488 87.3346 86.2488 87.6768 86.4456 87.9112L88.2999 90.1213V91.9139L85.1601 94.6936L85.9488 95.3917L89.6644 92.1022C89.7996 91.9827 89.8769 91.8104 89.8769 91.6299V90.351C89.8769 90.2026 89.8246 90.0592 89.7292 89.9456L87.6824 87.5057L89.5367 85.2956C89.7335 85.0612 89.7335 84.7194 89.5367 84.4846L87.6824 82.2741L89.5367 80.0635C89.7335 79.8291 89.7335 79.4874 89.5367 79.2526L87.6824 77.0424L89.7292 74.6026C89.8246 74.4889 89.8769 74.3456 89.8769 74.1971V70.7448C93.898 69.1729 96.7476 65.2635 96.7476 60.6858C96.748 54.7217 91.9132 49.887 85.9488 49.887Z" fill="#EBB631"/>
<path d="M76.4332 54.2198C75.8399 53.2948 75.491 52.1983 75.491 51.0202C75.491 47.7409 78.1586 45.0733 81.4379 45.0733C84.7168 45.0733 87.3848 47.7409 87.3848 51.0202C87.3848 53.7198 85.575 56.0011 83.1063 56.7245C83.2371 57.3917 83.5981 57.9749 84.1016 58.3929C87.1168 57.2999 89.277 54.4081 89.277 51.0202C89.277 46.6976 85.7602 43.1812 81.4379 43.1812C77.1152 43.1812 73.5984 46.6979 73.5984 51.0202C73.5984 52.5827 74.0598 54.0386 74.8508 55.2624C75.507 55.2132 76.1152 54.8327 76.4332 54.2198Z" fill="#BF6015"/>
<path d="M87.7 51.0202C87.7 53.9784 86.052 56.5574 83.627 57.8917C83.7652 58.0769 83.9238 58.2452 84.1016 58.3925C87.1168 57.2995 89.277 54.4077 89.277 51.0198C89.277 46.6972 85.7602 43.1808 81.4379 43.1808C81.1719 43.1808 80.9086 43.1945 80.6492 43.2202C84.6031 43.6171 87.7 46.9636 87.7 51.0202Z" fill="#8C3F0A"/>
</svg>
